<svg id="Layer_1" enable-background="new 0 0 500 500" viewBox="0 0 500 500" xmlns="http://www.w3.org/2000/svg"><g clip-rule="evenodd" fill-rule="evenodd"><path d="m204.24 42.991h91.52c9.588 0 17.432 7.845 17.432 17.432v50.664c0 13.132 14.141 21.297 25.514 14.73l43.876-25.332c8.303-4.794 19.019-1.923 23.813 6.381l45.76 79.259c4.794 8.303 1.922 19.019-6.381 23.812l-43.877 25.332c-11.373 6.566-11.373 22.894 0 29.461l43.877 25.332c8.303 4.794 11.174 15.509 6.38 23.812l-45.76 79.259c-4.794 8.303-15.51 11.174-23.813 6.381l-43.876-25.332c-11.373-6.566-25.514 1.598-25.514 14.73v50.664c0 9.588-7.844 17.432-17.432 17.432h-91.52c-9.588 0-17.432-7.845-17.432-17.432v-50.664c0-13.133-14.141-21.297-25.514-14.73l-43.876 25.332c-8.303 4.794-19.019 1.922-23.812-6.381l-45.76-79.259c-4.794-8.303-1.922-19.019 6.38-23.812l43.877-25.332c11.373-6.566 11.373-22.894 0-29.461l-43.877-25.332c-8.303-4.794-11.174-15.509-6.381-23.812l45.76-79.259c4.794-8.303 15.51-11.174 23.813-6.381l43.876 25.332c11.373 6.566 25.514-1.598 25.514-14.73v-50.664c.001-9.587 7.845-17.432 17.433-17.432z" fill="#60b7fe"/><path d="m204.24 42.991h64.965c9.588 0 17.432 7.845 17.432 17.432v50.664c0 13.132 14.141 21.297 25.514 14.73l5.517-3.185c5.088 5.497 13.647 7.453 21.039 3.185l38.619-22.297c.951.99 1.799 2.107 2.515 3.346l45.76 79.259c4.794 8.303 1.922 19.019-6.381 23.812l-43.877 25.332c-11.373 6.566-11.373 22.894 0 29.461l43.877 25.332c8.303 4.794 11.174 15.509 6.38 23.812l-45.76 79.259c-.715 1.239-1.563 2.356-2.514 3.345l-38.619-22.297c-7.392-4.267-15.951-2.311-21.039 3.185l-5.517-3.185c-11.373-6.566-25.514 1.598-25.514 14.73v50.664c0 9.588-7.844 17.432-17.432 17.432h-64.965c-9.588 0-17.432-7.845-17.432-17.432v-50.664c0-13.133-14.141-21.297-25.514-14.73l-5.517 3.185c-5.088-5.497-13.647-7.453-21.039-3.185l-38.618 22.298c-.951-.99-1.799-2.107-2.514-3.345l-45.76-79.259c-4.794-8.303-1.922-19.019 6.38-23.812l43.877-25.332c11.373-6.566 11.373-22.894 0-29.461l-43.877-25.332c-8.303-4.794-11.174-15.509-6.381-23.812l45.76-79.259c.715-1.239 1.563-2.356 2.515-3.346l38.619 22.297c7.392 4.267 15.951 2.312 21.039-3.185l5.517 3.185c11.373 6.566 25.514-1.598 25.514-14.73v-50.665c-.001-9.587 7.843-17.432 17.431-17.432zm77.12 134.398c3.501 13.646 26.989 22.485 42.809 18.255 14.025-3.751 17.244-16.638 6.596-26.528-8.957-8.319-25.165-12.355-36.977-9.197-3.585.959-6.757 2.64-9.05 4.896-6.546-1.037-21.272-1.332-28.36-1.192l-.04-38.073c0-3.559-2.885-6.444-6.444-6.444s-6.444 2.885-6.444 6.444l.041 38.743c-20.138 1.683-40.275 6.469-53.088 17.033-9.512 7.843-13.337 17.616-11.853 26.983h-.004l.021.14h-.004c4.333 28.527 39.988 33.804 65.013 37.24l.043 41.363c-16.224 2.655-26.781 6.294-33.517 10.762-9.186 6.094-11.892 13.483-11.652 21.891.255 8.93 4.026 15.394 12.281 20.61 6.923 4.374 17.179 7.693 31.644 10.977l1.311.241.09 85.544c-.274 3.555 2.383 6.662 5.939 6.941 3.559.279 6.67-2.38 6.949-5.938.954-12.045 4.21-24.707 11.547-34.904 7.686-10.682 21.897-29.52 15.765-43.942-4.18-9.832-15.896-14.909-27.414-18.007l-.045-42.956c2.391-.285 4.923-.566 7.396-.842 25.782-2.869 45.682-5.083 46.44-30.022.405-13.31-7.059-20.907-19.315-25.729-9.237-3.634-21.271-5.497-34.588-7.282l-.061-57.883c8.538-.172 16.587.107 24.971.876zm-37.855-.143c-16.66 1.518-34.468 5.423-44.914 14.037-5.746 4.738-7.991 10.092-7.262 15.157l.003-.001.013.091.004-.001c1.4 9.219 8.72 14.91 18.843 18.771 9.475 3.614 21.303 5.675 33.37 7.368zm42.836 76.463c-7.605-2.992-18.119-4.698-29.874-6.297l.04 37.864c2.112-.251 4.073-.469 5.995-.683 19.5-2.17 34.551-3.845 34.968-17.538.198-6.584-4.096-10.579-11.129-13.346zm-42.707 46.412c-13.019 2.254-21.338 5.099-26.404 8.459-4.637 3.076-6.007 6.697-5.89 10.773.121 4.23 2.045 7.379 6.267 10.047 5.333 3.37 13.85 6.121 26.068 8.957zm21.402 57.936c-2.307-1.201-5.104-2.338-8.458-3.395l.045 42.609 2.198-3.108c5.937-8.217 16.356-22.639 13.28-29.873-.87-2.048-3.041-4.138-7.065-6.233z" fill="#88c8fe"/><g fill="#e33f65"><path d="m303.155 157.773c3.545.405 6.09 3.607 5.686 7.151-.405 3.545-3.607 6.09-7.151 5.686l-19.08-3.066c-8.837-.858-17.259-1.175-26.217-.992l.061 57.883c13.318 1.785 25.351 3.647 34.588 7.282 12.255 4.822 19.719 12.419 19.315 25.729-.758 24.938-20.658 27.153-46.44 30.022-2.473.275-5.005.557-7.396.842l.045 42.956c11.518 3.098 23.233 8.175 27.414 18.007 6.132 14.422-8.08 33.26-15.765 43.942-7.337 10.197-10.594 22.86-11.547 34.904-.279 3.559-3.39 6.217-6.949 5.938-3.556-.279-6.213-3.386-5.939-6.941l-.09-85.544-1.311-.241c-14.465-3.285-24.721-6.603-31.644-10.977-8.255-5.216-12.026-11.68-12.281-20.61-.241-8.409 2.465-15.797 11.652-21.891 6.736-4.468 17.292-8.107 33.517-10.762l-.043-41.363c-25.026-3.436-60.681-8.713-65.013-37.24h.004l-.021-.14.004-.001c-1.484-9.367 2.341-19.139 11.853-26.983 12.812-10.565 32.95-15.351 53.088-17.033l-.041-38.743c0-3.559 2.885-6.444 6.444-6.444s6.444 2.885 6.444 6.444l.04 38.073c9.378-.184 18.278.156 27.444 1.047zm-59.65 9.51c-16.66 1.518-34.468 5.423-44.914 14.037-5.746 4.738-7.991 10.092-7.262 15.157l.003-.001.013.091.004-.001c1.4 9.219 8.72 14.91 18.843 18.771 9.475 3.614 21.303 5.675 33.37 7.368zm42.836 76.462c-7.605-2.992-18.119-4.698-29.874-6.297l.04 37.864c2.112-.251 4.073-.469 5.995-.683 19.5-2.17 34.551-3.845 34.968-17.538.198-6.583-4.096-10.578-11.129-13.346zm-42.707 46.413c-13.019 2.254-21.338 5.099-26.404 8.459-4.637 3.076-6.007 6.697-5.89 10.773.121 4.23 2.045 7.379 6.267 10.047 5.333 3.37 13.85 6.121 26.068 8.957zm21.402 57.936c-2.307-1.201-5.104-2.338-8.458-3.395l.045 42.609 2.198-3.108c5.937-8.217 16.356-22.639 13.28-29.873-.87-2.048-3.041-4.138-7.065-6.233z"/><path d="m315.158 149.812c.262.044.518.108.766.19 6.972 1.797 12.96 5.018 17.032 8.801 10.648 9.89 7.43 22.777-6.596 26.528-18.05 4.827-46.085-7.36-43.022-24.289 1.013-5.599 6.151-9.7 12.641-11.436 5.371-1.436 12.174-1.477 19.179.206z"/></g></g></svg>