<svg version="1.1" id="Capa_1" xmlns="http://www.w3.org/2000/svg" xmlns:xlink="http://www.w3.org/1999/xlink" x="0px" y="0px" viewBox="0 0 512 512" style="enable-background:new 0 0 512 512;" xml:space="preserve">
<g>
	<g>
		
			<polyline style="fill-rule:evenodd;clip-rule:evenodd;fill:none;stroke:#CECFD1;stroke-width:15;stroke-linecap:square;stroke-miterlimit:10;" points="&#10;&#9;&#9;&#9;171.845,202.883 191.883,150.27 194.122,150.268 213.978,202.883 &#9;&#9;"/>
		
			<line style="fill-rule:evenodd;clip-rule:evenodd;fill:none;stroke:#CECFD1;stroke-width:15;stroke-linecap:round;stroke-linejoin:bevel;stroke-miterlimit:10;" x1="178.094" y1="189.78" x2="207.829" y2="189.78"/>
		
			<polyline style="fill-rule:evenodd;clip-rule:evenodd;fill:none;stroke:#CECFD1;stroke-width:15;stroke-linecap:square;stroke-miterlimit:10;" points="&#10;&#9;&#9;&#9;340.599,202.094 340.599,148.829 342.94,148.829 375.893,201.272 378.233,201.272 378.233,148.729 &#9;&#9;"/>
		
			<polyline style="fill-rule:evenodd;clip-rule:evenodd;fill:none;stroke:#CECFD1;stroke-width:15;stroke-linecap:square;stroke-miterlimit:3;" points="&#10;&#9;&#9;&#9;54.051,148.729 54.051,202.049 72.738,202.049 &#9;&#9;"/>
		
			<line style="fill-rule:evenodd;clip-rule:evenodd;fill:none;stroke:#CECFD1;stroke-width:15;stroke-linecap:square;stroke-linejoin:round;stroke-miterlimit:10;" x1="310.599" y1="148.729" x2="310.599" y2="202.094"/>
		
			<path style="fill-rule:evenodd;clip-rule:evenodd;fill:none;stroke:#CECFD1;stroke-width:15;stroke-linecap:square;stroke-miterlimit:10;" d="&#10;&#9;&#9;&#9;M280.6,176.201c0,14.269-7.919,25.673-20.484,25.893H245.02v-51.786h14.667C273.468,150.308,280.6,161.932,280.6,176.201z"/>
		
			<path style="fill-rule:evenodd;clip-rule:evenodd;fill:none;stroke:#CECFD1;stroke-width:15;stroke-linecap:square;stroke-miterlimit:10;" d="&#10;&#9;&#9;&#9;M449.834,153.286c-4.259-2.877-9.393-4.557-14.918-4.557c-14.736,0-26.683,11.946-26.683,26.682&#10;&#9;&#9;&#9;c0,14.736,11.946,26.682,26.683,26.682c14.736,0,23.033-11.946,23.033-26.682h-15.964"/>
		
			<circle style="fill-rule:evenodd;clip-rule:evenodd;fill:none;stroke:#CECFD1;stroke-width:15;stroke-linecap:round;stroke-linejoin:bevel;stroke-miterlimit:10;" cx="123.393" cy="175.389" r="26.682"/>
		<path style="fill-rule:evenodd;clip-rule:evenodd;fill:none;stroke:#CECFD1;stroke-width:15;stroke-miterlimit:22.9256;" d="&#10;&#9;&#9;&#9;M452,363.293H7.5v-67.5 M7.5,280.793v-37.499h497v120H467"/>
		
			<rect x="37.5" y="273.293" style="fill-rule:evenodd;clip-rule:evenodd;fill:none;stroke:#CECFD1;stroke-width:15;stroke-miterlimit:22.9256;" width="330" height="60"/>
		<path style="fill-rule:evenodd;clip-rule:evenodd;fill:none;stroke:#CECFD1;stroke-width:15;stroke-miterlimit:22.9256;" d="&#10;&#9;&#9;&#9;M217.5,273.293l-22.5,60 M277.499,273.293l-22.5,60 M337.498,273.293l-22.5,60 M97.501,273.293l-22.5,60 M157.5,273.293l-22.5,60"/>
		<path style="fill-rule:evenodd;clip-rule:evenodd;fill:none;stroke:#CECFD1;stroke-width:15;stroke-miterlimit:22.9256;" d="&#10;&#9;&#9;&#9;M467,273.293h15 M437,273.293h15"/>
	</g>
</g>
<g>
</g>
<g>
</g>
<g>
</g>
<g>
</g>
<g>
</g>
<g>
</g>
<g>
</g>
<g>
</g>
<g>
</g>
<g>
</g>
<g>
</g>
<g>
</g>
<g>
</g>
<g>
</g>
<g>
</g>
</svg>